<svg width="83" height="25" viewBox="0 0 163 29" fill="none" xmlns="http://www.w3.org/2000/svg">
<path fill-rule="evenodd" clip-rule="evenodd" d="M0.455566 1.29201H7.50357C8.81787 1.29201 10.1313 1.41156 11.3252 1.59091C17.5363 2.48674 22.4339 5.77206 22.4339 14.4913C22.4339 23.1516 17.5363 26.495 11.3252 27.3311C10.1313 27.5104 8.817 27.5693 7.50357 27.5693H0.455566V1.29201ZM160.276 5.29295C161.231 5.29295 161.948 4.57645 161.948 3.50128C161.948 2.42696 161.231 1.64982 160.276 1.64982C159.319 1.64982 158.602 2.4261 158.602 3.50128C158.602 4.57645 159.319 5.29295 160.276 5.29295ZM160.276 1.23223C160.574 1.23212 160.869 1.29073 161.144 1.40472C161.42 1.51871 161.67 1.68584 161.881 1.89656C162.091 2.10729 162.258 2.35747 162.372 2.63281C162.486 2.90816 162.545 3.20327 162.545 3.50128C162.545 3.79936 162.487 4.09456 162.373 4.37C162.259 4.64545 162.092 4.89573 161.881 5.10655C161.67 5.31736 161.42 5.48458 161.145 5.59862C160.869 5.71267 160.574 5.77131 160.276 5.77119C159.978 5.77119 159.683 5.71249 159.407 5.59844C159.132 5.48438 158.882 5.31722 158.671 5.10648C158.46 4.89574 158.293 4.64555 158.179 4.3702C158.065 4.09485 158.006 3.79974 158.006 3.50171C158.006 3.20368 158.065 2.90856 158.179 2.63322C158.293 2.35787 158.46 2.10768 158.671 1.89694C158.882 1.6862 159.132 1.51903 159.407 1.40498C159.683 1.29093 159.978 1.23223 160.276 1.23223ZM160.276 3.85996L160.155 3.68062H159.857V4.75579H159.378V2.18784H160.394C160.991 2.18784 161.35 2.42697 161.35 2.96412C161.35 3.38172 161.05 3.62084 160.633 3.68062L161.35 4.75579H160.812L160.276 3.85996ZM160.276 2.54653H160.335C160.573 2.54653 160.812 2.60631 160.812 2.90521C160.812 3.26389 160.574 3.3228 160.335 3.3228H159.858V2.54653H160.276ZM143.673 12.4597C145.644 12.2205 147.255 11.3845 147.255 8.8763C147.255 6.48769 145.644 5.83011 143.673 5.53207H140.088V12.5801H141.76C142.418 12.5801 143.075 12.5194 143.673 12.4597ZM143.673 1.35179C148.331 1.53113 152.631 2.48674 152.631 8.4587C152.631 11.5647 150.66 14.1326 147.375 14.5502C148.75 14.7296 149.586 16.1036 150.063 17.2984L154.185 27.5693H148.451L145.346 19.3283C144.868 18.1336 144.451 17.4162 143.673 16.9986C143.256 16.7604 142.599 16.6399 141.761 16.6399H140.089V27.5693H134.953V1.29201H140.507C141.521 1.29201 142.657 1.29201 143.673 1.35179ZM95.8336 9.1752C96.4306 10.7278 96.7286 12.4605 96.7286 14.4315C96.7286 16.283 96.4306 18.0747 95.8336 19.687C93.9822 24.7614 89.503 28.0476 83.3526 28.0476C75.1107 28.0476 69.8544 22.4334 69.8544 14.4307C69.8544 6.36726 75.2294 0.873547 83.3526 0.873547C89.503 0.873547 93.9822 4.09908 95.8336 9.1752ZM95.8336 3.62084L104.912 27.5693H106.823L116.916 1.29201H111.54L106.166 15.1472L100.433 1.29201H94.9387L95.8336 3.62084ZM118.23 1.29201H133.519V5.53207H123.425V11.9823H132.622V16.0421H123.426V23.4488H133.579V27.5693H118.231L118.23 1.29201ZM11.3252 5.95054C10.4293 5.65163 9.47372 5.53207 8.51897 5.53207H5.59233V23.4488H8.51897C9.47458 23.4488 10.4302 23.2695 11.3252 22.9714C14.4909 21.8356 17.0589 18.9098 17.0589 14.4904C17.0597 10.071 14.4909 7.02485 11.3252 5.95054ZM24.4647 1.29201H29.6604V27.5693H24.4647V1.29201ZM46.3235 8.27936C44.5318 7.1444 42.6214 6.00945 40.5906 5.77119C38.7392 5.53207 36.7682 6.06923 36.7682 8.69696C36.7682 13.2359 48.116 11.3247 48.116 20.1046C48.116 25.8374 43.577 28.6445 38.3814 28.0476C35.5743 27.7478 33.962 26.9117 31.7518 25.4198V20.0439C33.4846 21.0004 36.0517 22.851 38.0825 23.2097C40.2926 23.5684 42.6812 22.9099 42.6812 20.5222C42.6812 15.4461 31.394 17.5358 31.394 8.87543C31.394 3.02304 35.8134 0.872681 40.3524 0.872681C42.6223 0.872681 44.5924 1.70873 46.3243 3.26129L46.3235 8.27936ZM68.5401 24.9416C67.2258 26.6154 64.1207 27.5693 62.0301 27.7487C53.9675 28.2867 48.5925 23.8075 48.5925 14.9089C48.5925 5.95053 53.3108 0.695073 62.0301 1.17331C63.762 1.23309 66.569 1.83003 68.4205 3.38258V8.39979C66.2104 7.02658 63.9413 6.07096 62.0301 6.01118C56.7148 5.83184 53.9675 9.17606 53.9675 14.5511C53.9675 19.927 56.5355 22.9117 62.0301 22.6734C64.1796 22.6145 67.4051 20.8817 68.5401 19.927V24.9416Z" fill="white"/>
</svg>
