<svg width="38" height="25" viewBox="0 0 165 94" fill="none" xmlns="http://www.w3.org/2000/svg">
<path d="M77.8594 0.786493C68.6813 2.80416 62.107 8.29668 57.8531 17.5443C55.7906 22.084 53.8828 29.8745 53.2383 36.4319C52.7484 41.5881 52.7227 52.1809 53.2125 57.3932C54.7078 74.0949 60.9211 86.0327 70.6406 90.9088C71.5687 91.3571 72.9094 92.0297 73.6055 92.422C76.0805 93.655 84.2531 94.2715 89.7961 93.599C92.6578 93.2627 95.468 92.7583 96.0352 92.4781C96.6023 92.1978 97.8914 91.6374 98.8711 91.3011C103.228 89.6758 104.388 89.1153 104.904 88.5548C105.42 87.9383 105.445 87.49 105.445 79.2512C105.445 74.3751 105.342 70.508 105.188 70.2838C105.059 70.1156 104.259 70.7321 103.409 71.6849C102.558 72.5817 101.707 73.3663 101.527 73.3663C101.346 73.3663 100.882 73.7026 100.521 74.151C99.8508 74.8796 98.3555 75.9444 95.6484 77.5137C93.818 78.5786 88.7906 80.0919 87.0375 80.0919C85.2586 80.0919 81.7523 78.6907 79.9219 77.2335C75.7969 73.9268 73.0383 67.8177 71.6203 58.9064C70.8211 53.6941 70.7695 41.1958 71.543 36.0956C73.6828 22.028 79.1484 14.5178 87.1922 14.5178C92.6063 14.5178 98.5875 17.6003 104.079 23.3171C104.543 23.7654 105.033 23.9896 105.162 23.7654C105.342 23.5412 105.445 20.2906 105.445 15.0783C105.445 7.00762 105.42 6.67135 104.878 5.8867C104.285 5.04601 103.46 4.65368 99 3.08439C97.7883 2.63602 96.525 2.13161 96.1641 1.96347C94.643 1.17882 86.8828 -0.0542004 84.0984 0.00184584C82.4484 0.057892 79.6383 0.39417 77.8594 0.786493V0.786493ZM30.3445 3.14043C30.2414 3.30857 30.1641 15.4146 30.1641 29.9866C30.1641 58.1778 30.0352 61.7087 28.875 67.3694C28.1789 70.7882 26.0906 75.2158 24.3375 77.0093C22.7648 78.6347 19.8258 80.0919 18.1242 80.0919C14.9273 80.0919 8.14688 76.9533 5.23359 74.151C4.79531 73.7026 4.30547 73.3663 4.125 73.3663C3.97031 73.3663 3.11953 72.5817 2.26875 71.6849C1.39219 70.7321 0.515626 70.1156 0.335157 70.2277C0.0773445 70.4519 0 72.5256 0 79.2512V87.9383L0.876561 88.723C1.72734 89.5076 2.52656 89.8439 7.60547 91.6374C11.9625 93.1506 13.5352 93.4869 18.3047 93.8232C23.3836 94.2155 29.9578 93.4869 32.0977 92.366C35.7586 90.4604 37.4086 89.3395 38.9297 87.8262C43.2609 83.4546 45.7359 77.5698 47.257 68.2101C47.8242 64.7352 47.8242 64.2868 47.8242 33.8537V3.02834L39.1617 2.8602C34.418 2.80415 30.4477 2.91625 30.3445 3.14043V3.14043ZM111.968 3.14043C111.71 3.36462 111.633 12.6683 111.633 47.0246C111.633 90.4604 111.633 90.6846 112.148 91.3011C112.535 91.7495 118.671 91.8616 133.237 91.6934C155.745 91.4692 155.229 91.5253 158.529 88.0504C160.205 86.2569 162.602 81.3249 163.35 78.1302C165 71.1805 164.613 62.6054 162.37 56.4404C160.798 52.0688 157.91 48.706 154.043 46.7444C153.347 46.4081 152.78 45.8476 152.831 45.5674C152.857 45.2872 153.424 44.7828 154.069 44.3904C159.328 41.476 162.396 32.0603 161.674 20.9631C161.055 11.4353 157.755 5.43833 151.98 3.30857C150.614 2.80416 112.509 2.63602 111.968 3.14043ZM142.132 17.0959C143.885 19.0576 145.148 23.4852 145.148 27.6887C145.148 32.2845 143.524 37.2726 141.616 38.5056C140.559 39.1781 128.726 39.5705 128.442 38.8979C128.21 38.4495 128.055 19.2817 128.262 17.4883L128.391 16.1992H134.862C140.302 16.1992 141.436 16.3673 142.132 17.0959ZM143.292 53.8062C145.767 56.2162 146.953 61.7087 146.386 68.0419C146.128 70.8442 145.896 71.797 144.916 73.9268C143.292 77.4577 142.235 77.85 134.681 77.85C129.009 77.85 128.648 77.794 128.391 76.7851C128.107 75.6082 128.03 56.1041 128.287 53.8622L128.442 52.6292H135.274C141.642 52.6292 142.158 52.6853 143.292 53.8062V53.8062Z" fill="#fff"/>
</svg>
